<svg width="16" height="16" viewBox="0 0 16 16" fill="none" xmlns="http://www.w3.org/2000/svg">
<path d="M7.99935 8C9.24802 8 10.3793 8.41333 11.2093 8.99133C11.998 9.54133 12.666 10.3587 12.666 11.238C12.666 11.7207 12.46 12.1207 12.1353 12.418C11.83 12.6987 11.4313 12.8807 11.0207 13.0047C10.2 13.2533 9.11935 13.3333 7.99935 13.3333C6.87935 13.3333 5.79868 13.2533 4.97802 13.0047C4.56735 12.8807 4.16868 12.6987 3.86268 12.418C3.53935 12.1213 3.33268 11.7213 3.33268 11.2387C3.33268 10.3593 4.00068 9.542 4.78935 8.992C5.61935 8.41333 6.75068 8 7.99935 8ZM12.666 8.66667C13.362 8.66667 13.994 8.89667 14.4613 9.222C14.888 9.52 15.3327 10.0153 15.3327 10.6193C15.3327 10.964 15.1827 11.25 14.9593 11.4547C14.7554 11.642 14.5033 11.752 14.2733 11.8213C13.96 11.916 13.59 11.9647 13.206 11.986C13.2873 11.756 13.3327 11.506 13.3327 11.238C13.3327 10.2147 12.6933 9.34533 11.978 8.742C12.204 8.69209 12.4346 8.66683 12.666 8.66667ZM3.33268 8.66667C3.57135 8.66756 3.80068 8.69267 4.02068 8.742C3.30602 9.34533 2.66602 10.2147 2.66602 11.238C2.66602 11.506 2.71135 11.756 2.79268 11.986C2.40868 11.9647 2.03935 11.916 1.72535 11.8213C1.49535 11.752 1.24335 11.642 1.03868 11.4547C0.921367 11.3496 0.827538 11.2209 0.763323 11.0771C0.699108 10.9333 0.66595 10.7775 0.666016 10.62C0.666016 10.0167 1.11002 9.52067 1.53735 9.22267C2.06592 8.8603 2.69182 8.66646 3.33268 8.66667ZM12.3327 4.66667C12.7747 4.66667 13.1986 4.84226 13.5112 5.15482C13.8238 5.46738 13.9993 5.89131 13.9993 6.33333C13.9993 6.77536 13.8238 7.19928 13.5112 7.51184C13.1986 7.8244 12.7747 8 12.3327 8C11.8907 8 11.4667 7.8244 11.1542 7.51184C10.8416 7.19928 10.666 6.77536 10.666 6.33333C10.666 5.89131 10.8416 5.46738 11.1542 5.15482C11.4667 4.84226 11.8907 4.66667 12.3327 4.66667ZM3.66602 4.66667C4.10804 4.66667 4.53197 4.84226 4.84453 5.15482C5.15709 5.46738 5.33268 5.89131 5.33268 6.33333C5.33268 6.77536 5.15709 7.19928 4.84453 7.51184C4.53197 7.8244 4.10804 8 3.66602 8C3.22399 8 2.80007 7.8244 2.4875 7.51184C2.17494 7.19928 1.99935 6.77536 1.99935 6.33333C1.99935 5.89131 2.17494 5.46738 2.4875 5.15482C2.80007 4.84226 3.22399 4.66667 3.66602 4.66667ZM7.99935 2C8.70659 2 9.38487 2.28095 9.88497 2.78105C10.3851 3.28115 10.666 3.95942 10.666 4.66667C10.666 5.37391 10.3851 6.05219 9.88497 6.55228C9.38487 7.05238 8.70659 7.33333 7.99935 7.33333C7.29211 7.33333 6.61383 7.05238 6.11373 6.55228C5.61363 6.05219 5.33268 5.37391 5.33268 4.66667C5.33268 3.95942 5.61363 3.28115 6.11373 2.78105C6.61383 2.28095 7.29211 2 7.99935 2Z" fill="#272727"/>
</svg>
