<svg width="56" height="56" viewBox="0 0 56 56" fill="none" xmlns="http://www.w3.org/2000/svg">
<path d="M28.0013 32.0133C26.3913 31.0567 25.668 29.9273 25.668 29.1667M28.0013 32.0133V46.6667H19.8346L23.3346 42L21.0013 31.5C14.0013 31.5 10.5013 23.3333 10.5013 18.6667H7.0013C6.38246 18.6667 5.78897 18.4208 5.35139 17.9832C4.9138 17.5457 4.66797 16.9522 4.66797 16.3333C4.66797 15.0957 5.15963 13.9087 6.0348 13.0335C6.90997 12.1583 8.09696 11.6667 9.33464 11.6667H12.8346L13.46 10.7287C13.8918 10.0945 14.5565 9.6564 15.3095 9.50956C16.0626 9.36271 16.8432 9.51899 17.4816 9.94443C18.1201 10.3699 18.5649 11.0301 18.7193 11.7816C18.8737 12.5332 18.7253 13.3153 18.3063 13.958L17.5013 15.1667C17.1116 16.723 17.0346 20.0667 19.8346 21C21.391 21.3897 24.7346 21 25.668 16.3333C26.8346 12.8333 29.168 7 33.8346 7C37.6053 7 38.3286 12.3293 42.7713 16.2237C44.8806 18.067 46.668 20.482 46.668 23.282V46.6667H39.668L42.0013 42L40.8346 33.201C36.8516 34.4283 31.6016 34.1553 28.0013 32.0133ZM45.0323 18.6667C45.0323 18.6667 51.3346 19.8333 51.3346 28" stroke="white" stroke-width="2" stroke-linecap="round" stroke-linejoin="round"/>
</svg>
